# xmcd
#
# Track frame offsets: 
#        150
#        12669
#        20060
#        32858
#        42908
#        56160
#        68651
#        79379
#        92808
#        101668
#        115445
#        132509
#        146141
#        153707
#        159229
#        168265
#        182953
#        197383
#        206681
#        221231
#        233007
#        245659
#        267229
#        280866
#        292998
#        307848
#        315700
#        327142
#        338757
#
# Disc length: 4648 seconds
#
# Revision: 0
# Processed by: cddbd v1.5.2PL0 Copyright (c) Steve Scherf et al.
# Submitted via: ExactAudioCopyFreeDBPlugin 1.0
#
DISCID=b612261d
DTITLE=Various Artist - America! Country CD2
DYEAR=2014
DGENRE=Country
TTITLE0=Elizabeth Cotten - Freight train
TTITLE1=Jimmie Driftwood - Old Joe Clark
TTITLE2=Erik Darling - Swannanoa tunnel
TTITLE3=Ramblin' Jack Elliott - Cocaine
TTITLE4=Paul Clayton - Who's gonna buy you ribbons
TTITLE5=New Lost City Ramblers - When first unto this country
TTITLE6=Barbara Dane - Nine hundred miles
TTITLE7=Paul Robeson - Joe Hill
TTITLE8=Ewann MacColl - The Maid gaed to the mill
TTITLE9=Dave Van Ronk - Duncan and Brady
TTITLE10=Fred Gerlach - Gallows pole
TTITLE11=The Brothers Four - Green fields
TTITLE12=Theodore Bikel - One Sunday morning
TTITLE13=Cisco Houston - Mysteries of a hobo's life
TTITLE14=Joan Baez - Rake and rambling boy
TTITLE15=Joan Baez - Donna, Donna
TTITLE16=Reverend Gary Davis - Let us get together
TTITLE17=Bob Gibson - Springhill mine disaster
TTITLE18=The Journeymen - Five hundred miles
TTITLE19=Judy Collins - Maid of constant sorrow
TTITLE20=Carolyn Hester - Go way from my window
TTITLE21=Rolf Cahn - Nobody knows you when you're down and out
TTITLE22=The Kingston Trio - Where have all the flowers gone
TTITLE23=Bob Dylan - Song to Woody
TTITLE24=Bob Dylan - Talkin' New York
TTITLE25=Bob Dylan - Gospel plow
TTITLE26=The Greenbriar Boys - Stewball
TTITLE27=Peggy Seeger - The firts time I ever saw your face
TTITLE28=Peter Paul and Mary - If I had a hammer
EXTD=
EXTT0=
EXTT1=
EXTT2=
EXTT3=
EXTT4=
EXTT5=
EXTT6=
EXTT7=
EXTT8=
EXTT9=
EXTT10=
EXTT11=
EXTT12=
EXTT13=
EXTT14=
EXTT15=
EXTT16=
EXTT17=
EXTT18=
EXTT19=
EXTT20=
EXTT21=
EXTT22=
EXTT23=
EXTT24=
EXTT25=
EXTT26=
EXTT27=
EXTT28=
PLAYORDER=
